PathFileType	4	(X/Y/Z)	C:/Users/beibeiliu/ov580/test_trc/User3\sequence.51_training_dense_left.trc
DataRate	CameraRate	NumFrames	NumMarkers	Units	OrigDataRate	OrigDataStartFrame	OrigNumFrames
120	120	18	19	mm	120	76	100
Frame#	Time	ThumbCMC			ThumbMCP			ThumbIP			ThumbTip			IndexMCP			IndexPIP			IndexTip			MiddleMCP			MiddlePIP			MiddleTip			RingMCP			RingPIP			RingTip			PinkyMCP			PinkyPIP			PinkyTip			BackHand1			BackHand2			BackHand3	
		X0	Y0	Z0	X1	Y1	Z1	X2	Y2	Z2	X3	Y3	Z3	X4	Y4	Z4	X5	Y5	Z5	X6	Y6	Z6	X7	Y7	Z7	X8	Y8	Z8	X9	Y9	Z9	X10	Y10	Z10	X11	Y11	Z11	X12	Y12	Z12	X13	Y13	Z13	X14	Y14	Z14	X15	Y15	Z15	X16	Y16	Z16	X17	Y17	Z17	X18	Y18	Z18	
75	0.625	-63.2628	-11.7293	71.2128	-46.6674	-19.2944	48.9876	-28.8339	-23.9106	27.197	-16.8553	-31.9988	10.3661	-86.4762	5.7445	-2.70011	-79.2352	4.42934	-31.6972	-71.071	1.28045	-54.7151	-110.896	8.01776	-6.91769	-115.112	5.65714	-34.0906	-115.845	-1.09615	-68.0133	-135.381	-2.64464	3.49527	-138.809	-4.38589	-21.7035	-149.211	-12.9926	-49.1052	-150.71	-14.8129	21.7721	-163.863	-20.9684	4.56184	-170.145	-26.8666	-18.7062	-124.607	7.77225	51.7669	-122.332	8.34072	86.4714	-94.3626	10.7225	66.9091	
76	0.633333	-71.4427	-17.0337	68.238	-54.9226	-23.8076	48.7005	-42.9956	-29.1979	22.6033	-26.9687	-34.9919	6.92509	-92.0187	-1.46721	-0.402267	-86.5638	-1.66574	-29.4752	-86.9027	-5.69573	-53.8744	-122.236	0.954448	-8.35936	-127.134	-1.8018	-33.9547	-125.843	-7.92843	-63.6958	-141.762	-8.30988	5.03585	-153.79	-12.1086	-20.9108	-160.336	-20.1486	-42.904	-163.196	-20.2442	22.6029	-172.935	-26.0465	6.10362	-182.691	-32.673	-18.8651	-134.391	0.296433	57.6902	-135.756	2.90443	83.9414	-104.015	5.58317	62.5667	
77	0.641667	-83.1804	-17.8995	71.6473	-66.0433	-23.774	47.4174	-48.4349	-29.434	23.6213	-37.4867	-34.9784	7.58653	-104.54	-1.8718	-0.850713	-97.9486	-2.44364	-29.3231	-97.0598	-6.24236	-55.6629	-129.526	0.149495	-5.57104	-132.833	-3.36803	-30.9527	-138.058	-11.422	-62.0548	-152.63	-9.9111	5.44201	-162.834	-14.3395	-19.831	-169.466	-22.2432	-44.7662	-169.342	-19.6493	22.3818	-180.185	-26.2623	4.15263	-186.132	-34.2229	-14.4922	-144.863	2.61265	57.4486	-142.081	0.907282	87.3619	-112.706	5.16929	64.2498	
78	0.65	-82.714	-14.728	74.597	-68.6661	-19.7589	47.966	-53.7845	-25.266	25.8612	-44.0765	-30.834	6.67301	-107.142	1.22878	-0.712209	-100.3	1.21096	-24.7972	-99.3858	-2.64618	-50.055	-137.187	2.89536	-0.169607	-137.688	0.0140165	-33.1785	-138.025	-7.11532	-61.2674	-155.09	-6.0735	10.6234	-166.375	-9.94952	-16.3257	-171.005	-17.6624	-38.8556	-171.098	-18.089	28.4191	-183.468	-23.6033	4.38849	-191.217	-30.7414	-14.0929	-145.143	2.18822	61.9214	-144.638	2.21563	88.1967	-112.737	5.71663	67.9075	
79	0.658333	-86.3489	-10.3493	75.7501	-68.8769	-14.6032	52.7595	-51.3209	-18.4919	28.5866	-42.2639	-24.0652	10.0316	-110.263	7.42726	4.28368	-104.547	7.23155	-26.2854	-99.8117	5.12784	-47.0807	-138.426	9.02075	0.876423	-137.422	7.16041	-25.9393	-142.173	-0.711473	-56.6907	-156.776	0.520767	8.43795	-166.676	-4.28927	-13.1195	-170.305	-10.9119	-37.4246	-173.47	-11.8538	29.2779	-185.116	-16.9234	11.2076	-191.784	-25.0618	-10.0649	-149.215	6.56127	65.5709	-145.454	8.92778	90.759	-115.608	12.636	71.006	
80	0.666667	-88.8658	-7.24955	79.3779	-67.9837	-11.0543	59.5964	-55.9539	-13.7427	31.9946	-45.2161	-20.2889	14.8332	-110.183	13.0255	4.51484	-105.81	11.9886	-22.584	-99.1843	8.60931	-46.3453	-139.028	12.8245	4.41547	-141.168	11.626	-24.6216	-141.073	4.0515	-53.252	-155.781	3.43233	15.382	-162.818	0.92673	-8.1744	-169.374	-7.48656	-37.1368	-178.221	-8.768	31.475	-181.951	-13.0935	13.4759	-193.45	-20.388	-6.95799	-153.071	12.3857	64.6861	-144.687	9.75418	95.4679	-116.339	15.018	76.1558	
81	0.675	-85.1147	-2.96954	84.607	-68.9122	-7.21703	60.9753	-54.3357	-9.51708	36.0399	-44.2956	-16.2222	19.2389	-110.028	15.7456	11.3211	-107.349	16.3824	-14.858	-104.228	12.9827	-42.3535	-135.902	16.8812	7.45843	-137.201	16.0532	-20.5541	-144.781	8.67406	-50.0378	-158.604	6.20998	19.7273	-166.926	4.37853	-3.6483	-170.679	-3.30344	-34.2228	-174.206	-4.8277	32.9037	-183.476	-8.77742	15.5971	-196.607	-17.3195	-4.47685	-153.41	14.0939	71.4098	-150.561	11.5751	99.3453	-118.017	17.5225	79.3056	
82	0.683333	-86.7573	1.14392	89.0434	-71.7439	-3.99563	68.9241	-55.8419	-6.77666	39.7685	-46.7982	-10.8111	21.3702	-109.041	20.9119	16.0325	-104.651	20.4924	-9.25464	-105.314	17.7098	-34.9514	-137.567	20.4705	16.0599	-139.646	18.7676	-17.4225	-144.496	11.5018	-46.5319	-158.85	10.3024	23.558	-167.962	6.84749	0.85425	-169.595	0.460986	-26.9349	-174.204	-2.64672	43.2425	-185.928	-6.15252	22.4942	-195.12	-14.2385	2.9231	-150.372	18.8473	73.374	-147.479	16.8229	104.661	-119.375	22.4131	86.9985	
83	0.691667	-89.383	3.36241	97.0578	-69.1548	0.330001	72.9293	-58.0189	-2.45037	46.4171	-45.5391	-6.95702	26.7373	-110.098	23.8147	22.8278	-107.07	24.2157	-4.86026	-104.296	22.362	-29.3982	-141.833	24.8443	17.8203	-144.291	21.7288	-9.54842	-146.437	14.4035	-38.3378	-159.313	13.4996	30.5289	-168.167	10.3707	6.4352	-174.872	2.0382	-21.2733	-177.44	-0.561378	48.4179	-188.423	-5.43508	29.4851	-193.752	-11.6288	5.35282	-154.388	19.9586	80.0849	-151.812	17.6301	110.98	-119.575	25.8492	90.3796	
84	0.7	-88.4012	7.63371	98.71	-69.6604	3.26112	76.3405	-52.9918	1.01199	52.1979	-45.1227	-5.42149	33.9147	-111.35	26.6948	28.9096	-108.865	26.0696	-2.45147	-103.291	24.8203	-23.2572	-138.793	26.4587	22.6594	-144.516	25.0053	-2.17166	-144.749	17.4733	-34.924	-161.734	15.4948	34.7093	-167.374	12.1006	7.50229	-173.137	3.85907	-17.7098	-175.97	3.16767	50.1787	-188.695	-4.03664	33.4419	-193.67	-8.98584	11.2304	-156.265	23.9068	85.4953	-150.264	19.389	117.937	-119.192	28.1988	95.7215	
85	0.708333	-88.9911	10.2317	106.334	-73.5343	6.6757	81.4198	-58.6895	3.2429	58.0939	-45.8209	-0.675191	38.469	-114.055	30.3274	31.9542	-110.146	30.0932	8.04	-106.182	27.8266	-18.7831	-139.78	30.8056	30.7555	-142.596	28.6118	-0.370952	-144.618	21.2344	-28.2257	-164.144	18.8718	40.0115	-166.41	16.6998	13.9849	-176.004	6.35438	-12.3348	-181.295	5.25957	54.8927	-187.525	-0.595813	38.0668	-198.499	-8.30323	13.9147	-156.858	24.9192	93.051	-151.12	23.9753	119.37	-119.786	30.6279	103.964	
86	0.716667	-92.9074	14.2571	111.748	-73.5917	11.3175	86.8659	-56.507	8.6599	65.4037	-45.9909	4.81479	40.9529	-116.858	34.6419	38.6678	-108.042	36.8867	10.4845	-106.098	33.2147	-16.5194	-145.095	34.1716	37.3181	-144.501	33.46	8.31855	-148.575	25.927	-27.3643	-162.596	22.7843	44.3729	-170.804	19.5481	16.6595	-176.098	12.2193	-4.82314	-178.186	9.48803	60.1244	-186.361	3.68782	38.0494	-198.518	-4.50224	20.6338	-157.88	27.1877	99.0155	-152.763	28.7175	123.683	-121.541	36.2671	107.463	
87	0.725	-91.9108	17.0748	115.866	-72.3718	14.9448	91.3991	-61.4295	12.4567	66.7638	-45.7622	9.02138	48.5384	-116.821	39.6659	41.1322	-111.516	40.6155	16.0625	-107.038	38.0597	-10.9732	-142.446	39.4327	38.8495	-143.179	38.5846	11.197	-146.188	30.7249	-18.5313	-166.058	26.4104	49.9487	-169.239	24.9055	23.903	-175.269	16.0469	-2.95852	-178.62	12.6085	65.3955	-190.788	6.83404	43.5472	-198.67	-1.13639	24.9623	-159.274	32.2303	102.791	-154.672	29.2855	132.935	-123.629	38.6814	112.198	
88	0.733333	-91.5704	20.1639	118.652	-74.2023	17.5053	96.9881	-56.0024	16.9714	69.6537	-48.2675	11.3685	49.3489	-117.329	40.992	48.8749	-109.151	43.5048	18	-109.097	41.5426	-4.05798	-146.039	41.0415	42.3646	-146.38	39.7849	14.1653	-145.148	33.9638	-13.4692	-165.796	27.1633	56.5304	-168.743	26.6288	30.3795	-175.769	18.5577	4.29365	-178.215	15.5214	70.4147	-187.742	10.5624	50.9654	-199.312	1.53526	31.7561	-156.225	34.4579	108.654	-155.501	31.7409	136.033	-122.73	40.2551	112.853	
89	0.741667	-91.7412	21.4981	123.165	-73.71	19.9984	101.351	-58.5532	18.0294	75.2371	-46.6316	13.4737	59.3839	-115.923	42.8755	52.4914	-109.016	44.8371	23.2892	-103.143	44.1847	-1.87925	-144.336	43.0842	47.374	-142.491	42.3691	18.8945	-146.039	35.2809	-10.3198	-162.179	30.3247	58.7248	-169.905	28.6246	34.0513	-172.316	20.6762	8.06582	-179.437	15.0178	77.9279	-187.829	11.191	54.4687	-194.576	3.04639	31.466	-158.318	33.9125	112.495	-156.054	32.3479	141.319	-122.316	42.8271	118.502	
90	0.75	-88.028	23.3037	129.893	-73.4267	20.1764	105.271	-53.2266	19.1177	78.7722	-45.8355	14.6159	59.6489	-116.427	44.3488	57.7853	-109.34	46.7422	31.4505	-104.753	44.1813	2.20749	-141.529	42.9007	55.7296	-142.782	43.3782	26.6365	-144.951	35.1259	-7.972	-159.737	31.2155	64.8829	-167.926	29.8417	37.1692	-175.114	20.4301	8.16403	-180.497	16.048	77.694	-185.265	13.3163	59.1658	-193.005	4.91581	38.3872	-152.281	35.3286	115.197	-155.259	31.9628	142.327	-119.733	44.8216	124.088	
91	0.758333	-88.6246	25.1639	132.077	-70.2269	22.498	109.629	-54.2689	19.7987	85.3492	-46.6163	15.0988	66.578	-113.195	46.3093	56.5478	-110.309	47.1543	32.9258	-105.069	45.4825	7.03817	-140.226	44.6758	58.9764	-142.866	44.1644	24.9105	-146.315	36.1612	-4.72405	-162.741	33.2585	62.7582	-170.61	29.5928	41.7968	-176.301	20.9359	15.1371	-176.856	16.6673	84.3238	-188.752	11.6678	61.9134	-198.113	3.96348	39.7049	-154.076	37.802	117.167	-153.927	35.6761	144.594	-122.472	43.5297	124.904	
92	0.766667	-91.1496	26.5635	133.198	-76.2559	23.4174	110.845	-57.4644	24.1297	83.4512	-50.4519	18.9502	63.922	-117.823	47.7261	61.1115	-111.744	51.4271	32.3254	-109.076	48.8704	9.92013	-147.163	47.1639	58.7942	-148.524	45.9769	28.5411	-147.604	38.9022	-5.18681	-166.56	34.4382	66.0835	-172.913	31.827	40.2364	-175.72	25.6076	16.5813	-181.542	19.5	83.5999	-189.867	15.0587	62.7633	-197.283	6.40902	38.7476	-159.064	38.3125	119.126	-153.487	36.9239	149.521	-126.908	44.3074	129.926	
